<?xml version="1.0" encoding="utf-8"?>
<!-- Generator: Adobe Illustrator 23.1.1, SVG Export Plug-In . SVG Version: 6.00 Build 0)  -->
<svg version="1.1" id="Layer_1" xmlns="http://www.w3.org/2000/svg" xmlns:xlink="http://www.w3.org/1999/xlink" x="0px" y="0px"
	 viewBox="0 0 40 40" style="enable-background:new 0 0 40 40;" xml:space="preserve">
<style type="text/css">
	.st0{fill:#FDF8E1;}
</style>
<path id="Icon-Social-Facebook" class="st0" d="M28.7,20h-5.5v-3.8c0-1.6,0.8-3.1,3.3-3.1h2.5V8.2c0,0-2.3-0.4-4.5-0.4
	c-4.6,0-7.6,2.8-7.6,7.8l0,4.4h-5.1v5.8h5.1v14C7.3,38.3,0,30,0,20C0,9,9,0,20,0s20,9,20,20c0,10-7.3,18.3-16.9,19.8v-14h4.7
	C27.8,25.8,28.7,20,28.7,20z"/>
</svg>
