<?xml version="1.0" encoding="utf-8"?>
<!-- Generator: Adobe Illustrator 23.1.1, SVG Export Plug-In . SVG Version: 6.00 Build 0)  -->
<svg version="1.1" id="Layer_1" xmlns="http://www.w3.org/2000/svg" xmlns:xlink="http://www.w3.org/1999/xlink" x="0px" y="0px"
	 viewBox="0 0 23 19" style="enable-background:new 0 0 23 19;" xml:space="preserve">
<style type="text/css">
	.st0{fill:#EBBC4E;}
</style>
<path class="st0" d="M20.6,4.7c0,0.2,0,0.4,0,0.6c0,6.2-4.7,13.4-13.4,13.4c-2.7,0-5.1-0.8-7.2-2.1c0.4,0,0.7,0.1,1.1,0.1
	c2.2,0,4.2-0.8,5.9-2c-2.1,0-3.8-1.4-4.4-3.3c0.3,0.1,0.6,0.1,0.9,0.1c0.4,0,0.8-0.1,1.2-0.2c-2.2-0.4-3.8-2.3-3.8-4.6V6.6
	c0.6,0.4,1.4,0.6,2.1,0.6C1.8,6.3,1,4.9,1,3.2c0-0.9,0.2-1.7,0.6-2.4c2.3,2.9,5.8,4.7,9.7,4.9c-0.1-0.3-0.1-0.7-0.1-1.1
	c0-2.6,2.1-4.7,4.7-4.7c1.4,0,2.6,0.6,3.4,1.5c1.1-0.2,2.1-0.6,3-1.1c-0.4,1.1-1.1,2-2.1,2.6c1-0.1,1.9-0.4,2.7-0.7
	C22.4,3.2,21.6,4,20.6,4.7"/>
</svg>
