<svg id="Color" xmlns="http://www.w3.org/2000/svg" viewBox="0 0 459.82 419.56"><defs><style>.cls-1{fill:#fff6df;}.cls-1,.cls-2,.cls-3,.cls-4,.cls-5,.cls-6{stroke:#000;}.cls-1,.cls-2,.cls-3,.cls-4,.cls-5,.cls-6,.cls-8{stroke-miterlimit:10;}.cls-2,.cls-3,.cls-6{fill:none;}.cls-2{stroke-width:9px;}.cls-3{stroke-width:5px;}.cls-4{fill:#f8c758;}.cls-5,.cls-8{fill:#53aabf;}.cls-6{stroke-width:7px;}.cls-7{font-size:81px;font-family:Funkydori;}.cls-8{stroke:#53aabf;stroke-width:0.75px;}</style></defs><title>color-webcrumbs-main</title><path class="cls-1" d="M296.75,368.36a39.8,39.8,0,0,0-5.26,21.51,86.15,86.15,0,0,0,26.41,2.74l.6-11.34a32.24,32.24,0,0,1,1.33-9c1.37-3.92,4.28-7.84,3-11.8-2.49-.53-5-1-7.48-1.51-3.51-.67-9.75-2.3-13.12-.44C299.41,360.05,298.14,365.44,296.75,368.36Z"/><path class="cls-1" d="M363.94,329.22a43.88,43.88,0,0,1,5,14.07,3.33,3.33,0,0,1,0,1.63,3.55,3.55,0,0,1-1.2,1.52c-4.89,4.28-9.94,8.65-16.08,10.76l.35,1.64c-1.2,1-2.94.87-4.48.65a93.76,93.76,0,0,1-16.51-3.93c-2.59-4.45-5.28-9.45-4.16-14.47.9-4,4.05-7.08,7.15-9.78,3.72-3.24,7.8-8.65,12.8-6.8A79.27,79.27,0,0,0,363.94,329.22Z"/><path class="cls-1" d="M365.8,378.66a10.35,10.35,0,0,1,3.28-1.73c1.81-.44,3.73.13,5.56-.19,2.84-.49,5.46-3.05,8.2-2.15.21,5.64,5.2,10.24,5.49,15.88.22,4.35-2.38,8.29-5.06,11.73A5.64,5.64,0,0,1,379,405l-15.1,3.21a4.38,4.38,0,0,1-2.38.06c-1.24-.43-1.81-1.82-2.21-3.07A69.84,69.84,0,0,1,356,388.84C355.65,383.51,361.79,381.44,365.8,378.66Z"/><path class="cls-1" d="M431.7,369.63c4.19.44,8.67,1,11.8,3.82,1.66,1.5,2.82,3.55,4.7,4.77a3.36,3.36,0,0,1,1.3,1.11,2.62,2.62,0,0,1,.14,1.42l-2.14,26.32a1.88,1.88,0,0,1-.43,1.25,1.76,1.76,0,0,1-1.08.37,94.44,94.44,0,0,1-10.63.62,20.62,20.62,0,0,1-7.5-1,22.82,22.82,0,0,1-6.65-4.63c-2.51-2.23-5.17-4.72-5.77-8a15.3,15.3,0,0,1,.07-4.48c.71-6.15.29-14.19,2.33-20C419.53,366.31,427.7,369.22,431.7,369.63Z"/><polyline class="cls-2" points="366.94 329.16 343.46 324.81 326.27 340.54"/><polyline class="cls-3" points="327.04 337.97 348.02 342.06 364.11 327.88"/><polyline class="cls-2" points="327.36 336.09 333.07 356.52 353.06 360.13 369.1 346.13 363.63 325.92"/><line class="cls-3" x1="353.06" y1="360.13" x2="348.08" y2="342.04"/><polyline class="cls-3" points="387.38 390.64 368.01 395.97 363.12 378.21"/><polyline class="cls-2" points="363.12 378.21 382.49 372.88 389.05 396.69"/><line class="cls-2" x1="363.36" y1="413.27" x2="354.99" y2="382.83"/><polyline class="cls-3" points="363.66 379.65 368.01 395.97 361.87 403.81"/><line class="cls-2" x1="353.52" y1="387.51" x2="364.97" y2="377.21"/><polyline class="cls-2" points="390.05 392.53 379.66 404.12 357.91 410.23"/><polygon class="cls-2" points="298.62 359.6 293.64 376.31 292.91 389.35 317.42 391.48 317.63 377.24 320.94 360.8 298.62 359.6"/><line class="cls-3" x1="293.87" y1="374.51" x2="317.64" y2="376.22"/><polyline class="cls-3" points="429.56 406.02 430.89 382.9 446.21 383.78"/><line class="cls-3" x1="417.79" y1="371.85" x2="430.94" y2="382.84"/><polygon class="cls-2" points="450.36 379.83 448.73 407.97 428.61 407.92 416.73 395.78 418.25 374.34 418.55 369.05 440.55 370.6 450.36 379.83"/><path class="cls-4" d="M84.65,267.57c3.24,10.89,6.73,22.67,9.22,33.74,2.65,11.78,6,22.37,8.57,34.17,1,4.42,2.4,9.46,3.48,13.84,1.71,6.94,5.44,17,7.33,23.84A96.57,96.57,0,0,0,119,389.48c2.87,6.74,7.79,13.15,14.79,15.3,5.64,1.72,11.72.45,17.46-.87,16.17-3.72,32.26-7.72,48.32-11.87q12-3.1,24.06-6.31l11.58-3.08c6.63-1.76,8.66-1.12,11.71-8,2.07-4.67,3.53-8.76,5.12-13.23.69-1.95,1.88-11.13,3.74-11.64-15.59,4.31-30.08,8.58-45.67,12.9l-32.65,9a175.65,175.65,0,0,1-20.59,4.81c-4.66.7-8.21.65-11.73-2.49-1.49-1.33-3.4-2.8-4.17-4.64-5.55-13.14-9.45-27.31-13.14-40.89-3.65-13.39-7.64-26.71-11-40.23q-2.3-9.36-4.87-18.64c-1.27-4.58-2.24-15.06-5.41-18.52S83.81,264.72,84.65,267.57Z"/><path class="cls-1" d="M134.15,352.86c2.4,9.05,5.81,19.3,14.49,22.82,6.16,2.5,13.12.73,19.52-1.06l88.9-24.84a135.65,135.65,0,0,0-5.3-23.29c4.06.78,8.23-1.42,10.93-4.55s4.22-7.08,5.69-10.94l6-15.9c1.06-2.78,2.62-6,5.56-6.4l8.39,22.94a3.19,3.19,0,0,0,4.77,2.54l15.6-4.67c4.72-1.41,9.77-3,12.75-7,1.86-2.46,2.67-5.54,4-8.32,2.08-4.4,5.45-8.07,7.69-12.39s3.19-9.89.36-13.85c7.23-.43,13.08-6.67,15.24-13.58s1.34-14.36.21-21.51a256.06,256.06,0,0,0-6.55-29.74,10.13,10.13,0,0,0-2.12-4.44,9.61,9.61,0,0,0-3.52-2c-10.93-4.22-22.81-5.3-34.52-5.59C247.81,190.35,195,204.33,145.76,227c-13.61,6.25-28.22,12.59-40.66,20.94.78,3.18,2.84,6.17,3.74,9.52,1.19,4.45,2.36,8.92,3.54,13.38L119.6,298Z"/><path class="cls-5" d="M35.75,263.72,9.85,314.6,44,308.35a176.35,176.35,0,0,0,9.74,41.08l23-28.34c4.58-5.64,9.25-11.46,11.44-18.39,3.62-11.46-.13-23.81-4-35.17C111.72,239,149.26,222.3,187,209.86c41.48-13.69,85.34-23.11,128.72-18.1,9.36,1.08,19.63,3.44,25,11.2,5.71,8.32,3.77,20.14,9.36,28.54,6.55,9.84,36.94,27.27,40.75,28.38-2-14.52-2.21-29.12-4.24-43.64a76.54,76.54,0,0,0,36.82-4.64L370,171.6c4.06-5.77,2.76-14.07-1.37-19.78s-10.53-9.34-16.92-12.32c-50.62-23.6-110.09-16.79-164.1-2.58-11.42,3-22.77,6.32-33.9,10.29a301.22,301.22,0,0,0-109.1,68.32C39.05,220.94,33.65,226,30,232.84c-1.59,3-3.21,6.1-3.36,9.48-.32,7.54,6.56,13.34,8.86,20.52C35.66,263.31,36,263.28,35.75,263.72Z"/><path class="cls-4" d="M17,128c-1.62,7.69-2.76,15.73-.83,23.35A59.36,59.36,0,0,0,19.85,161c2.68,6,5.41,12.09,9.52,17.23,3.88,4.87,8.87,8.72,13.8,12.52,4.34,3.35,9.11,6.86,14.6,6.94,5.24.09,9.95-3,14.28-5.91l12.08-8.19a3.92,3.92,0,0,0,2-5.29q-1.27-5.28-2.87-10.45c-7.8,1.2-15.82,1.59-23.54,0s-15.16-5.35-20.25-11.38c-4.06-4.8-6.43-10.78-8.61-16.68-3.54-9.62-6.08-19.6-9.6-29.2-1.31,1.77-1.27,5.37-1.84,7.52C18.53,121.38,17.73,124.7,17,128Z"/><path class="cls-1" d="M86.11,179.09l-2.82-10.23c-12.66,6.84-29.77.71-39.95-9.46-11.77-11.76-16.55-30.57-17.23-46.88-.47-11.41,3.1-18.21,8-26.15,6.1-9.93,17.16-19.26,26-24.88C76.18,51.31,90.5,44.85,108.46,38.35c38.22-13.82,78.91-23,119.12-28.18C244.91,8,263.06,8.25,280.1,13A101.67,101.67,0,0,1,305,23.76c6.9,4.14,11.55,11.75,13.93,19.33a45.54,45.54,0,0,1-4.22,36.62c-2.12,3.49-4.74,6.88-5.32,10.92-.42,2.92.29,5.88,1,8.74,2.33,9.31,4.6,20.11,7.29,29.33-49.31-9.88-101.37-2.39-150.22,14.69-14.66,5.13-29.47,10.72-44,17.89C111.15,167.37,99.25,175.47,86.11,179.09Z"/><path class="cls-2" d="M319.46,127.27c3.19.63,6.78,1.54,7.18,1.64,3.44.82,8.65,1.34,18,5.57,10.41,4.71,20.23,11.16,27.46,20a8.37,8.37,0,0,1,1.72,2.85c.47,1.64,0,3.45.29,5l0,6.13c-1.45,6.4,1.48,7.64,4.91,10.48l44.64,33.9-37.48,3.67,7.33,45.61s-44.12-28.36-46.69-30.86"/><path class="cls-2" d="M91.16,299.87,53.38,349.13l-9.52-41.64-33.5,7.3,5.95-12,13.51-25.27,6.63-14.28-2.67-6c-3.58-5.54-8.13-10.63-5.7-17.59,5.81-16.67,20.5-29.24,33.21-39.86l3.89-3.39c-20,6.3-48.25-22.34-48.52-58.56a76.61,76.61,0,0,1,6.9-32.52A100.22,100.22,0,0,1,39,80.8c1.12-1.26,2.77-3.11,3.93-4.35,5.76-6.17,11.69-10.33,18.84-15a212.17,212.17,0,0,1,38.52-19.39c6.4-2.49,12.91-4.72,19.39-7,9-3.13,18.16-6,27.37-8.52,11.43-3.15,39.73-9.58,62-13.23,19.66-3.24,39.79-5.76,59.63-2.52,16.92,2.76,38.29,9.79,47.19,25.76a25.69,25.69,0,0,1,1.5,3.13c4.36,9.14,5.32,21.93,3.77,29.86-1.12,5.72-4.81,10.2-8.4,15-1.15,1.76-.3.66-3.26,4.27"/><path class="cls-2" d="M255.84,345.71a43.72,43.72,0,0,1,1.23,5.26c.34,2-2.7,7.94-2.72,8l-9.12,18.72a3.67,3.67,0,0,1-2.34,2l-7.14,2L152.4,404.47c-26,7.16-33.29-12.82-34.67-17.87L85,267.1"/><path class="cls-3" d="M106.13,249.27l30.14,109.35c1.24,4.52,7.33,22.52,24,17.92l47.51-13,9.4-2.58,37.7-10.37a3.15,3.15,0,0,1,1.21-.11"/><path class="cls-3" d="M337.13,278.3l-32.06,8.91a2.23,2.23,0,0,1-2.79-1.47l-6.89-25a2.24,2.24,0,0,0-2.79-1.48l-28,7.95,8.4,30.54s-30.62,8.13-30.1,8.42l8.36,30.41"/><line class="cls-3" x1="282.38" y1="284.91" x2="293.5" y2="260.67"/><line class="cls-2" x1="270.57" y1="288.25" x2="284.3" y2="284.48"/><line class="cls-3" x1="291.04" y1="313.87" x2="303.91" y2="285.58"/><path class="cls-2" d="M340.18,197.33l-1.51,1.86.57,2.59c.84,2.52,4.09,14.36,4.81,17.49l7,25.2"/><path class="cls-2" d="M351.08,242l-7,22.4a2.29,2.29,0,0,1-1.57,1.51l-8.46,2.33"/><polyline class="cls-2" points="315.24 81.23 308.72 89.97 318.9 127.35 326.64 128.91"/><line class="cls-2" x1="257.04" y1="350.23" x2="250.28" y2="325.65"/><path class="cls-6" d="M333.34,281.34l1.11-1.47a9.65,9.65,0,0,0,1.15-2.12,37.8,37.8,0,0,0-1.21-4.95l-2.25-8.48"/><path class="cls-2" d="M280.34,286.76l7,25.21a2.71,2.71,0,0,0,3.34,1.89l26.72-7.35a6.42,6.42,0,0,0,4.07-3.36l11.27-22.83"/><path class="cls-2" d="M271.52,284.23l3.37,12.21-11.92,26a1.67,1.67,0,0,1-1.08.91l-13,3.57"/><polyline class="cls-3" points="331.27 264.87 326.18 246.38 328.6 245.71 353.04 238.99"/><path class="cls-3" d="M32.73,252.82,48.87,272.4c6.05,6.15,11.82,13,18.71,18.16a15.19,15.19,0,0,0,1.84,1.24,13.63,13.63,0,0,0,2.66,1c6.37,1.74,13,2.24,19.5,3"/><path class="cls-3" d="M66.57,197.87l6.37-5.61c25-21.48,53.43-34.13,84.16-45.28a450,450,0,0,1,48.69-14.71,280,280,0,0,1,50.67-7.4c20.17-1,39.91-1.39,59.5,3.87"/><path class="cls-3" d="M67.58,290.56c11.28-18.62,24.71-33.22,43-45.47,19-12.69,40.14-21.89,61.49-29.85,27.17-10.12,55.12-18.67,83.89-22.31,29.56-3.73,58.95-3.9,87,6.23,2.68,1,3.91,4.09,4.62,6.59a17.17,17.17,0,0,1,.76,5.32c0,1.72-.31,3.44-.45,5.16-.06.67-.1,1.34-.11,2a5.59,5.59,0,0,0,.19,1.24l13.74-16.17,9.5-45.45"/><path class="cls-3" d="M36.51,85.06c-3.21,3.78-4.76,8-7.34,13.31-9.31,19.25-1.15,45.51,14.89,62,3.38,3.48,8,5.16,12.49,7,8.39,3.47,18.47,3,27.23.64-.22,5.22,2.18,9.05,3.19,14.22"/><text class="cls-7" transform="matrix(0.77, -0.64, 0.64, 0.77, 62.53, 277.53)">W</text><text class="cls-7" transform="translate(122.91 230.5) rotate(-28.32)">e</text><text class="cls-7" transform="translate(145.41 218.34) rotate(-23.03)">b</text><text class="cls-7" transform="matrix(0.95, -0.32, 0.32, 0.95, 171.91, 207.17)">C</text><text class="cls-7" transform="matrix(0.97, -0.26, 0.26, 0.97, 202.09, 196.36)">r</text><text class="cls-7" transform="translate(224.15 190.18) rotate(-9)">u</text><text class="cls-7" transform="translate(256.77 184.17) rotate(-0.91)">m</text><text class="cls-7" transform="translate(307.48 184.25) rotate(7.8)">b</text><text class="cls-7" transform="translate(334.6 186.99) rotate(18.74)">s</text><path class="cls-8" d="M342.42,203c-.25,0,1,3.14,2,6.67.13.43.52-.28.61-.72a2.92,2.92,0,0,0,0-1,8.54,8.54,0,0,0-1-3.92A3.41,3.41,0,0,0,342.42,203Z"/></svg>